<?xml version="1.0" encoding="UTF-8"?>
<svg id="_レイヤー_2" data-name="レイヤー 2" xmlns="http://www.w3.org/2000/svg" viewBox="0 0 1075.05 201.68">
  <g id="_レイヤー_1-2" data-name="レイヤー 1">
    <g>
      <path d="M0,103.27C0,40.34,40.05,0,104.13,0c20.88,0,45.2,4.86,65.51,14.02l4,50.35h-9.15l-14.88-20.31c-11.73-16.31-28.61-26.03-46.06-26.03-36.04,0-62.08,35.76-62.08,83.53s26.32,80.96,65.51,80.96c24.89,0,45.2-15.45,60.36-46.06h9.44l-6.58,46.34c-13.73,11.44-39.76,18.88-65.51,18.88C39.76,201.68,0,163.92,0,103.27Z"/>
      <path d="M201.11,126.73c0-42.62,32.33-74.67,74.09-74.67,44.34,0,74.09,29.75,74.09,75.24,0,42.62-32.33,74.38-74.09,74.38-44.05,0-74.09-29.46-74.09-74.95Zm108.42,.57c0-37.19-12.87-59.5-34.33-59.5s-34.33,22.03-34.33,58.93,13.16,59.22,34.33,59.22,34.33-21.74,34.33-58.64Z"/>
      <path d="M368.74,198.82v-8.58l10.87-4.86c8.58-4,10.58-7.72,10.58-17.45V103.56c0-13.16-2.29-17.45-10.58-20.03l-10.01-3.15v-8.3l46.34-20.02,7.72,4.58v27.18c14.88-19.74,34.04-31.75,52.35-31.75,29.75,0,48.06,21.46,48.06,57.21v58.65c0,9.73,2,13.45,10.58,17.45l10.58,4.86v8.58h-78.1v-8.58l10.87-4.86c7.44-3.72,9.44-6.87,9.44-17.45v-51.21c0-23.17-10.3-35.19-28.89-35.19-11.73,0-23.46,6.58-31.75,16.59v69.8c0,10.58,1.72,13.73,9.44,17.45l10.87,4.86v8.58h-78.38Z"/>
      <path d="M576.72,150.76V73.81h-22.03v-15.16l25.17-4.58,24.89-39.76,8.58,4.86V54.93h40.05v18.88h-40.05v70.66c0,26.6,6.01,35.76,20.31,35.76,6.29,0,13.45-1.72,19.45-4.29l3.43,12.59c-9.73,7.15-27.18,13.16-43.2,13.16-26.6,0-36.62-12.87-36.62-50.92Z"/>
      <path d="M670.55,161.92c0-18.59,12.59-32.9,33.76-40.34,14.59-5.44,32.04-8.01,50.35-9.15v-7.15c0-25.46-8.01-36.62-24.03-36.62-7.44,0-14.3,1.43-19.17,5.43-4.29,3.15-7.72,8.58-13.16,24.32h-13.16l-9.73-26.89c20.88-14.02,38.91-19.45,60.08-19.45,38.33,0,55.78,15.73,55.78,54.35v53.5c0,9.73,2.29,12.3,12.59,14.3l9.73,1.43,1.72,9.15-44.34,16.88h-6.87l-8.01-21.74c-9.73,13.16-25.46,21.74-40.62,21.74-27.18,0-44.91-15.73-44.91-39.76Zm84.1,2.58v-38.33c-9.44,.57-18.02,2-24.6,4-14.02,4-21.74,12.59-21.74,25.17s8.87,21.17,21.74,21.17c8.58,0,17.74-4,24.6-12.01Z"/>
      <path d="M830.17,129.3c0-46.06,31.18-77.24,74.09-77.24,20.03,0,36.33,5.44,52.35,15.45l-4.58,41.48h-10.01c-4.29-11.16-7.72-18.31-12.3-25.17-8.01-12.3-14.59-16.02-24.32-16.02-20.03,0-35.47,23.46-35.47,56.93s17.45,53.78,45.49,53.78c12.3,0,24.89-4.29,34.33-11.44l8.3,10.87c-14.88,16.02-33.47,23.74-56.64,23.74-44.63,0-71.23-26.89-71.23-72.38Z"/>
      <path d="M995.23,150.76V73.81h-22.03v-15.16l25.17-4.58,24.89-39.76,8.58,4.86V54.93h40.05v18.88h-40.05v70.66c0,26.6,6.01,35.76,20.31,35.76,6.29,0,13.45-1.72,19.45-4.29l3.43,12.59c-9.73,7.15-27.18,13.16-43.2,13.16-26.6,0-36.62-12.87-36.62-50.92Z"/>
    </g>
  </g>
</svg>