<?xml version="1.0" encoding="UTF-8"?>
<svg id="_レイヤー_2" data-name="レイヤー 2" xmlns="http://www.w3.org/2000/svg" viewBox="0 0 1678.79 207.18">
  <defs>
    <style>
      .cls-1 {
        stroke: #fff;
        stroke-miterlimit: 10;
      }

      .cls-2 {
        opacity: .82;
      }
    </style>
  </defs>
  <g id="_レイヤー_1-2" data-name="レイヤー 1">
    <g class="cls-2">
      <path class="cls-1" d="M.5,203.75v-7.9l11.41-4.68c9.36-4.09,11.7-7.31,11.7-16.08V32.08c0-8.77-2.34-12.28-11.7-16.08L.5,11.32V3.42H86.19c47.67,0,75.45,23.4,75.45,62.88s-28.66,62.88-76.62,62.88h-30.71v45.91c0,7.9,2.63,11.11,13.16,15.5l13.16,5.26v7.9H.5ZM54.31,114.26h27.2c28.95,0,47.38-18.72,47.38-47.96s-17.84-47.96-45.91-47.96h-28.66V114.26Z"/>
      <path class="cls-1" d="M186.79,103.73C186.79,45.25,228.32,.5,283,.5c59.95,0,96.22,38.9,96.22,103.23,0,58.78-41.24,102.94-96.22,102.94-60.24,0-96.22-38.6-96.22-102.94Zm159.97,0c0-51.18-26.32-87.44-63.75-87.44s-63.75,37.43-63.75,87.44,26.03,87.15,63.75,87.15,63.75-37.14,63.75-87.15Z"/>
      <path class="cls-1" d="M409.34,203.75v-7.9l11.41-4.68c9.36-4.09,11.7-7.31,11.7-16.08V32.08c0-8.77-2.34-12.28-11.7-16.08l-11.41-4.68V3.42h84.81c47.08,0,74.87,20.76,74.87,55.57,0,26.91-18.42,47.08-49.13,54.69,5.26,2.34,11.41,8.19,15.79,15.5l27.2,47.08c4.97,8.77,9.65,12.28,18.72,15.79l10.53,4.09v7.6h-48.55l-40.07-69.02c-6.43-10.82-11.41-16.38-15.79-17.25h-24.57v57.61c0,8.19,2.92,11.7,13.16,16.08l11.41,4.68v7.9h-78.38Zm53.81-101.19h26.61c27.49,0,46.5-18.13,46.5-43.58,0-23.4-19.3-40.65-46.21-40.65h-26.91V102.57Z"/>
      <path class="cls-1" d="M647.69,203.75v-7.9l13.16-5.26c10.24-4.39,13.16-7.6,13.16-15.5V18.34h-26.03c-13.75,0-18.72,4.39-28.66,21.93l-9.36,16.96h-7.9l4.09-53.81h166.11l4.09,53.81h-7.9l-9.36-16.96c-9.94-17.55-14.92-21.93-28.66-21.93h-25.74V175.09c0,7.9,2.34,11.11,12.87,15.5l13.16,5.26v7.9h-83.06Z"/>
      <path class="cls-1" d="M798.01,203.75v-7.9l11.41-4.68c9.36-4.09,11.7-7.31,11.7-16.08V32.08c0-8.77-2.34-12.28-11.7-16.08l-11.41-4.68V3.42h152.66l3.22,47.38h-7.9l-9.07-14.62c-9.94-15.5-13.45-17.84-26.91-17.84h-58.2V99.64h44.75c8.77,0,12.28-2.63,16.08-11.7l4.97-11.7h7.6v64.05h-7.6l-4.68-12.58c-4.09-10.53-7.6-13.16-16.38-13.16h-44.75v60.54c0,7.9,2.63,11.11,13.16,15.5l13.16,5.26v7.9h-80.13Z"/>
      <path class="cls-1" d="M979.04,103.73c0-58.49,41.53-103.23,96.22-103.23,59.95,0,96.22,38.9,96.22,103.23,0,58.78-41.24,102.94-96.22,102.94-60.24,0-96.22-38.6-96.22-102.94Zm159.97,0c0-51.18-26.32-87.44-63.75-87.44s-63.75,37.43-63.75,87.44,26.03,87.15,63.75,87.15,63.75-37.14,63.75-87.15Z"/>
      <path class="cls-1" d="M1201.6,203.75v-7.9l11.41-4.68c9.36-4.09,11.7-7.6,11.7-16.08V32.08c0-8.48-2.34-11.99-11.7-16.08l-11.41-4.68V3.42h77.21v7.9l-11.7,4.68c-9.36,4.09-11.7,7.6-11.7,16.08V173.34c0,11.99,2.92,15.5,14.33,15.5h36.85c14.92,0,20.18-2.92,31-20.47l9.36-16.67h7.9l-6.43,52.06h-146.81Z"/>
      <path class="cls-1" d="M1378.53,203.75v-7.9l11.41-4.68c9.36-4.09,11.7-7.6,11.7-16.08V32.08c0-8.48-2.34-11.99-11.7-16.08l-11.41-4.68V3.42h77.21v7.9l-11.7,4.68c-9.36,4.09-11.7,7.6-11.7,16.08V175.09c0,8.48,2.34,11.99,11.7,16.08l11.7,4.68v7.9h-77.21Z"/>
      <path class="cls-1" d="M1485.86,103.73c0-58.49,41.53-103.23,96.22-103.23,59.95,0,96.22,38.9,96.22,103.23,0,58.78-41.24,102.94-96.22,102.94-60.24,0-96.22-38.6-96.22-102.94Zm159.97,0c0-51.18-26.32-87.44-63.75-87.44s-63.75,37.43-63.75,87.44,26.03,87.15,63.75,87.15,63.75-37.14,63.75-87.15Z"/>
    </g>
  </g>
</svg>