<?xml version="1.0" encoding="UTF-8"?>
<svg id="_レイヤー_2" data-name="レイヤー 2" xmlns="http://www.w3.org/2000/svg" viewBox="0 0 876.2 210.54">
  <g id="_レイヤー_1-2" data-name="レイヤー 1">
    <g>
      <path d="M0,207.77v-8.59l9.97-4.71c9.14-4.43,11.36-7.76,11.36-16.9V48.2c0-9.14-2.22-12.74-11.36-16.9L0,26.59v-8.59H86.43c47.65,0,74.52,22.16,74.52,60.39s-27.7,59.56-75.07,59.56h-26.87v39.61c0,8.03,3.05,11.63,13.57,16.62l10.8,4.99v8.59H0ZM59.01,121.61h21.33c24.65,0,40.17-16.9,40.17-43.22s-15.24-44.05-39.61-44.05h-21.89V121.61Z"/>
      <path d="M176.74,207.77v-8.31l10.53-4.71c8.03-3.88,10.25-7.48,10.25-16.9v-62.33c0-12.74-2.49-17.18-10.25-19.39l-9.7-3.05v-8.03l44.88-19.39,7.48,4.43v26.04c8.59-17.73,23.82-30.47,37.95-30.47,8.86,0,18.01,3.6,25.21,9.7l-3.88,35.18h-8.86c-8.59-13.02-13.85-16.9-22.99-16.9-7.76,0-16.07,6.09-24.38,16.62v67.59c0,8.31,3.05,11.91,15.24,16.9l11.36,4.71v8.31h-82.83Z"/>
      <path d="M304.44,137.96c0-41.28,31.3-72.3,71.75-72.3,42.94,0,71.75,28.81,71.75,72.86,0,41.28-31.3,72.03-71.75,72.03-42.66,0-71.75-28.53-71.75-72.58Zm104.99,.55c0-36.01-12.47-57.62-33.24-57.62s-33.24,21.33-33.24,57.07,12.74,57.34,33.24,57.34,33.24-21.05,33.24-56.79Z"/>
      <path d="M461.51,207.77v-8.31l10.25-4.71c8.03-3.88,10.53-7.48,10.53-16.9V86.43h-25.21v-14.41l24.1-4.16c-.83-6.93-1.38-15.24-1.38-17.73,0-34.07,21.88-50.14,63.16-50.14,17.45,0,35.74,2.22,57.34,6.93l-6.37,36.84h-9.14c-14.4-19.67-26.59-28.53-43.21-28.53s-25.21,8.59-25.21,29.09c0,8.59,.28,16.07,.83,24.1h86.43l7.48,4.43v104.99c0,9.42,2.21,13.02,10.53,16.9l10.25,4.71v8.31h-76.73v-8.31l10.25-4.71c8.31-3.88,10.25-7.48,10.25-16.9V86.43h-57.9v91.42c0,9.42,1.94,12.74,11.36,16.9l10.53,4.71v8.31h-78.12Z"/>
      <path d="M650.71,207.77v-8.31l10.53-4.71c8.03-3.88,10.25-7.2,10.25-16.9V49.03c0-12.47-2.49-16.34-10.25-18.84l-9.7-3.05v-8.31L699.46,0l7.48,4.71V177.85c0,9.7,2.22,13.02,10.25,16.9l10.53,4.71v8.31h-77.01Z"/>
      <path d="M746.55,138.79c0-41.55,28.81-73.13,67.87-73.13,36.84,0,61.22,22.99,61.78,62.88v6.37h-91.14v2.77c0,32.97,17.17,50.7,45.71,50.7,13.02,0,22.99-3.88,34.63-11.36l8.03,10.25c-15.51,15.24-34.91,23.27-58.73,23.27-42.11,0-68.15-25.76-68.15-71.75Zm93.91-19.67c-.28-23.55-9.97-38.23-25.49-38.23-16.62,0-26.32,13.02-29.37,39.34l54.85-1.11Z"/>
    </g>
  </g>
</svg>