<?xml version="1.0" encoding="UTF-8"?>
<svg id="_レイヤー_2" data-name="レイヤー 2" xmlns="http://www.w3.org/2000/svg" viewBox="0 0 734.09 210.81">
  <g id="_レイヤー_1-2" data-name="レイヤー 1">
    <g>
      <path d="M0,193.92v-50.7H8.86l8.31,17.45c10.53,21.88,26.59,32.69,47.65,32.69,19.11,0,33.52-11.63,33.52-27.15s-11.36-24.93-53.19-44.32C14.13,107.76,.55,91.42,.55,68.15,.55,37.12,26.32,15.51,63.16,15.51c18.01,0,41,4.99,54.57,11.91l3.32,45.15h-9.14l-7.76-12.47c-11.91-18.56-26.32-27.15-43.49-27.15s-28.53,9.97-28.53,23.27,10.25,21.61,44.88,38.78c40.45,19.95,54.85,35.74,54.85,60.11,0,32.69-27.43,55.68-67.87,55.68-24.38,0-49.03-6.37-63.99-16.9Z"/>
      <path d="M153.74,208.04v-8.31l10.53-4.71c8.03-3.88,10.25-7.2,10.25-16.9V49.31c0-12.47-2.49-16.34-10.25-18.84l-9.7-3.05v-8.31L202.5,.28l7.48,4.71V122.17h12.47c6.65,0,13.57-3.6,19.11-9.97l14.13-16.62c3.32-3.6,5.54-7.2,5.54-10.25,0-2.22-2.77-3.88-6.37-5.26l-9.42-3.05v-8.31h65.38v8.31l-11.64,3.88c-11.36,4.43-14.41,6.37-24.66,17.73l-19.39,21.61,39.61,61.78c4.43,6.93,8.59,10.8,14.4,13.3l11.08,4.43v8.31h-51.25l-42.94-71.2h-16.07v41.28c0,9.7,2.22,13.02,10.25,16.9l10.53,4.71v8.31h-77.01Z"/>
      <path d="M337.41,208.04v-8.31l10.53-4.71c8.03-3.88,10.25-7.2,10.25-16.9v-62.88c0-13.02-2.49-16.9-10.25-19.11l-9.7-3.05v-8.03l47.92-19.11,7.48,4.43v107.76c0,9.7,2.22,13.02,10.25,16.9l10.53,4.71v8.31h-77.01Zm13.02-185.05c0-13.85,10.25-22.99,22.72-22.99s22.99,9.14,22.99,22.99-9.42,22.99-22.99,22.99-22.72-10.53-22.72-22.99Z"/>
      <path d="M434.08,208.04v-8.31l10.53-4.71c8.03-3.88,10.25-7.2,10.25-16.9V49.31c0-12.47-2.49-16.34-10.25-18.84l-9.7-3.05v-8.31L482.84,.28l7.48,4.71V178.13c0,9.7,2.22,13.02,10.25,16.9l10.53,4.71v8.31h-77.01Z"/>
      <path d="M530.76,208.04v-8.31l10.53-4.71c8.03-3.88,10.25-7.2,10.25-16.9V49.31c0-12.47-2.49-16.34-10.25-18.84l-9.7-3.05v-8.31L579.51,.28l7.48,4.71V178.13c0,9.7,2.22,13.02,10.25,16.9l10.53,4.71v8.31h-77.01Z"/>
      <path d="M625.77,196.41l3.88-35.18h8.86l7.2,12.74c8.86,14.68,18.84,21.61,33.52,21.61,13.57,0,22.72-6.65,22.72-18.56,0-9.42-6.09-16.62-34.63-28.26-26.87-10.8-38.78-24.38-38.78-42.66,0-24.38,20.5-40.17,51.53-40.17,16.9,0,35.46,3.88,47.92,9.7l-3.32,32.69h-9.14c-3.6-6.65-7.48-11.63-11.91-16.9-5.82-6.65-14.13-10.25-22.99-10.25-13.3,0-21.05,5.82-21.05,14.68,0,9.97,6.92,15.51,35.46,27.98,29.09,12.74,39.06,25.49,39.06,42.94,0,26.32-23.55,44.05-56.79,44.05-18.01,0-37.67-4.99-51.53-14.41Z"/>
    </g>
  </g>
</svg>