<?xml version="1.0" encoding="UTF-8"?>
<svg id="_レイヤー_2" data-name="レイヤー 2" xmlns="http://www.w3.org/2000/svg" viewBox="0 0 856.26 210.54">
  <g id="_レイヤー_1-2" data-name="レイヤー 1">
    <g>
      <path d="M78.12,210.54L22.99,48.2c-3.32-10.25-5.82-13.3-13.57-16.9L0,26.59v-8.31H80.06v8.31l-8.86,4.16c-7.76,3.32-9.7,5.26-9.7,9.14,0,2.22,.55,4.99,1.94,8.86l33.24,103.61L141.84,22.72l18.84-4.71,47.09,133.8,32.69-101.67c1.39-4.43,2.77-8.03,2.77-10.53,0-3.88-1.94-6.09-9.97-9.14l-9.97-3.88v-8.31h62.33v8.31l-11.36,4.99c-6.65,3.05-10.8,8.86-13.85,18.28l-51.8,153.47-16.34,7.2-50.97-138.51-45.43,131.31-17.73,7.2Z"/>
      <path d="M280.62,137.96c0-41.28,31.3-72.3,71.75-72.3,42.94,0,71.75,28.81,71.75,72.86,0,41.28-31.3,72.03-71.75,72.03-42.66,0-71.75-28.53-71.75-72.58Zm104.99,.55c0-36.01-12.46-57.62-33.24-57.62s-33.24,21.33-33.24,57.07,12.74,57.34,33.24,57.34,33.24-21.05,33.24-56.79Z"/>
      <path d="M442.95,207.77v-8.31l10.53-4.71c8.03-3.88,10.25-7.48,10.25-16.9v-62.33c0-12.74-2.49-17.18-10.25-19.39l-9.7-3.05v-8.03l44.88-19.39,7.48,4.43v26.04c8.59-17.73,23.82-30.47,37.95-30.47,8.86,0,18.01,3.6,25.21,9.7l-3.88,35.18h-8.87c-8.59-13.02-13.85-16.9-22.99-16.9-7.76,0-16.07,6.09-24.38,16.62v67.59c0,8.31,3.05,11.91,15.24,16.9l11.36,4.71v8.31h-82.83Z"/>
      <path d="M569.27,207.77v-8.31l10.53-4.71c8.03-3.88,10.25-7.2,10.25-16.9V49.03c0-12.47-2.49-16.34-10.25-18.84l-9.7-3.05v-8.31L618.02,0l7.48,4.71V121.89h12.47c6.65,0,13.57-3.6,19.12-9.97l14.13-16.62c3.32-3.6,5.54-7.2,5.54-10.25,0-2.22-2.77-3.88-6.37-5.26l-9.42-3.05v-8.31h65.38v8.31l-11.63,3.88c-11.36,4.43-14.41,6.37-24.66,17.73l-19.39,21.61,39.61,61.78c4.43,6.93,8.59,10.8,14.41,13.3l11.08,4.43v8.31h-51.25l-42.94-71.2h-16.07v41.28c0,9.7,2.22,13.02,10.25,16.9l10.53,4.71v8.31h-77.01Z"/>
      <path d="M747.94,196.13l3.88-35.18h8.87l7.2,12.74c8.87,14.68,18.84,21.61,33.52,21.61,13.57,0,22.72-6.65,22.72-18.56,0-9.42-6.09-16.62-34.63-28.26-26.87-10.8-38.78-24.38-38.78-42.66,0-24.38,20.5-40.17,51.53-40.17,16.9,0,35.46,3.88,47.93,9.7l-3.32,32.69h-9.14c-3.6-6.65-7.48-11.63-11.91-16.9-5.82-6.65-14.13-10.25-22.99-10.25-13.3,0-21.05,5.82-21.05,14.68,0,9.97,6.92,15.51,35.46,27.98,29.09,12.74,39.06,25.49,39.06,42.94,0,26.32-23.55,44.05-56.79,44.05-18.01,0-37.68-4.99-51.53-14.41Z"/>
    </g>
  </g>
</svg>